<svg xmlns="http://www.w3.org/2000/svg" viewBox="0 0 841.9 595.3">
  
    <symbol viewBox="0 0 119.88 119.88" id="basket">
            <g>
                <path d="M92.652,119.88H28.47c-6.042,0-10.956-4.914-10.956-10.952L8.423,66.246c-3.435-1.703-5.691-5.177-5.691-9.056
                    c0-5.669,4.611-10.276,10.276-10.276h93.864c5.665,0,10.276,4.607,10.276,10.276c0,3.317-1.601,6.354-4.278,8.266l-9.337,44.166
                    C103.608,114.966,98.694,119.88,92.652,119.88z M13.008,53.653c-1.948,0-3.536,1.588-3.536,3.536c0,1.536,1.11,2.896,2.703,3.3
                    c1.242,0.316,2.194,1.316,2.457,2.571l9.547,45.175c0.075,3.018,1.966,4.905,4.291,4.905h64.182c2.325,0,4.217-1.887,4.217-4.212
                    l9.71-46.289c0.211-1.018,0.882-1.878,1.808-2.334c1.246-0.605,2.023-1.808,2.023-3.115c0-1.948-1.588-3.536-3.537-3.536H13.008z"
                    />
                <path d="M37.123,100.121c0,1.304-1.067,2.371-2.371,2.371h-0.653c-1.304,0-2.371-1.067-2.371-2.371V72.368
                    c0-1.304,1.067-2.371,2.371-2.371h0.653c1.304,0,2.371,1.067,2.371,2.371V100.121z"/>
                <path d="M54.483,100.121c0,1.304-1.067,2.371-2.371,2.371h-0.653c-1.304,0-2.372-1.067-2.372-2.371V72.368
                    c0-1.304,1.067-2.371,2.372-2.371h0.653c1.304,0,2.371,1.067,2.371,2.371V100.121z"/>
                <path d="M71.844,100.121c0,1.304-1.067,2.371-2.371,2.371h-0.654c-1.304,0-2.371-1.067-2.371-2.371V72.368
                    c0-1.304,1.067-2.371,2.371-2.371h0.654c1.304,0,2.371,1.067,2.371,2.371V100.121z"/>
                <path d="M89.205,100.121c0,1.304-1.067,2.371-2.371,2.371H86.18c-1.304,0-2.372-1.067-2.372-2.371V72.368
                    c0-1.304,1.068-2.371,2.372-2.371h0.653c1.304,0,2.371,1.067,2.371,2.371V100.121z"/>
                <path d="M28.027,34.868c2.25-15.669,15.69-27.723,31.98-27.723c16.291,0,29.732,12.055,31.982,27.723c0.328,5.35,7.22,4.494,7.22,0
                    C96.915,15.24,80.253,0,60.008,0c-20.244,0-36.907,15.24-39.2,34.868C20.807,40.433,28.115,40.647,28.027,34.868z"/>
            </g>
    </symbol>
    <symbol viewBox="0 0 40 40" id="trash">
            <g>
                <path d="M28,40H11.8c-3.3,0-5.9-2.7-5.9-5.9V16c0-0.6,0.4-1,1-1s1,0.4,1,1v18.1c0,2.2,1.8,3.9,3.9,3.9H28c2.2,0,3.9-1.8,3.9-3.9V16   c0-0.6,0.4-1,1-1s1,0.4,1,1v18.1C33.9,37.3,31.2,40,28,40z"/></g><g><path d="M33.3,4.9h-7.6C25.2,2.1,22.8,0,19.9,0s-5.3,2.1-5.8,4.9H6.5c-2.3,0-4.1,1.8-4.1,4.1S4.2,13,6.5,13h26.9   c2.3,0,4.1-1.8,4.1-4.1S35.6,4.9,33.3,4.9z M19.9,2c1.8,0,3.3,1.2,3.7,2.9h-7.5C16.6,3.2,18.1,2,19.9,2z M33.3,11H6.5   c-1.1,0-2.1-0.9-2.1-2.1c0-1.1,0.9-2.1,2.1-2.1h26.9c1.1,0,2.1,0.9,2.1,2.1C35.4,10.1,34.5,11,33.3,11z"/></g><g><path d="M12.9,35.1c-0.6,0-1-0.4-1-1V17.4c0-0.6,0.4-1,1-1s1,0.4,1,1v16.7C13.9,34.6,13.4,35.1,12.9,35.1z"/></g><g><path d="M26.9,35.1c-0.6,0-1-0.4-1-1V17.4c0-0.6,0.4-1,1-1s1,0.4,1,1v16.7C27.9,34.6,27.4,35.1,26.9,35.1z"/></g><g><path d="M19.9,35.1c-0.6,0-1-0.4-1-1V17.4c0-0.6,0.4-1,1-1s1,0.4,1,1v16.7C20.9,34.6,20.4,35.1,19.9,35.1z"/>
            </g>
    </symbol>
    <symbol viewBox="0 0 10 9" id="cross">
            <g>
                <path d="M8.74791 6.95572L6.49931 4.70712L8.74791 2.45852C9.16184 2.04459 9.16184 1.37338 8.74791 0.959454C8.33398 0.545525 7.66277 0.545525 7.24884 0.959454L5.00024 3.20805L2.75164 0.959454C2.33771 0.545525 1.66651 0.545525 1.25258 0.959454C0.838648 1.37338 0.838648 2.04459 1.25258 2.45852L3.50118 4.70712L1.25258 6.95572C0.838649 7.36965 0.838649 8.04086 1.25258 8.45479C1.66651 8.86872 2.33772 8.86872 2.75164 8.45479L5.00024 6.20619L7.24884 8.45479C7.66277 8.86872 8.33398 8.86872 8.74791 8.45479C9.16184 8.04086 9.16184 7.36965 8.74791 6.95572Z"/>
            </g>
    </symbol>
    <symbol viewBox="0 0 306 306" id="arrow">
            <g>
                <polygon points="247.35,35.7 211.65,0 58.65,153 211.65,306 247.35,270.3 130.05,153 		"/>
            </g>
    </symbol>
</svg>